<?xml version="1.0" encoding="UTF-8" standalone="no"?>
<!DOCTYPE svg PUBLIC "-//W3C//DTD SVG 1.1//EN"
 "http://www.w3.org/Graphics/SVG/1.1/DTD/svg11.dtd">
<!-- Generated by graphviz version 9.0.0 (20230911.1827)
 -->
<!-- Pages: 1 -->
<svg width="267pt" height="188pt"
 viewBox="0.00 0.00 267.00 188.00" xmlns="http://www.w3.org/2000/svg" xmlns:xlink="http://www.w3.org/1999/xlink">
<g id="graph0" class="graph" transform="scale(1 1) rotate(0) translate(4 184)">
<polygon fill="white" stroke="none" points="-4,4 -4,-184 263,-184 263,4 -4,4"/>
<!-- 1 -->
<g id="node1" class="node">
<title>1</title>
<ellipse fill="none" stroke="black" cx="72" cy="-18" rx="18" ry="18"/>
<text text-anchor="middle" x="72" y="-13.32" font-family="Times,serif" font-size="14.00">1</text>
</g>
<!-- 2 -->
<g id="node2" class="node">
<title>2</title>
<ellipse fill="none" stroke="black" cx="18" cy="-90" rx="18" ry="18"/>
<text text-anchor="middle" x="18" y="-85.33" font-family="Times,serif" font-size="14.00">2</text>
</g>
<!-- 1&#45;&gt;2 -->
<g id="edge2" class="edge">
<title>1&#45;&gt;2</title>
<path fill="none" stroke="black" d="M61.33,-32.83C51.86,-45.1 38.11,-62.94 28.65,-75.2"/>
</g>
<!-- 4 -->
<g id="node4" class="node">
<title>4</title>
<ellipse fill="none" stroke="black" cx="72" cy="-90" rx="18" ry="18"/>
<text text-anchor="middle" x="72" y="-85.33" font-family="Times,serif" font-size="14.00">4</text>
</g>
<!-- 1&#45;&gt;4 -->
<g id="edge5" class="edge">
<title>1&#45;&gt;4</title>
<path fill="none" stroke="black" d="M72,-36.3C72,-47.15 72,-61.08 72,-71.9"/>
</g>
<!-- 5 -->
<g id="node5" class="node">
<title>5</title>
<ellipse fill="none" stroke="black" cx="64" cy="-162" rx="18" ry="18"/>
<text text-anchor="middle" x="64" y="-157.32" font-family="Times,serif" font-size="14.00">5</text>
</g>
<!-- 1&#45;&gt;5 -->
<g id="edge3" class="edge">
<title>1&#45;&gt;5</title>
<path fill="none" stroke="black" d="M81.8,-33.57C88.09,-43.82 95.67,-58.14 99,-72 102.73,-87.56 103.6,-92.68 99,-108 94.43,-123.21 83.93,-138.08 75.61,-148.18"/>
</g>
<!-- 2&#45;&gt;5 -->
<g id="edge4" class="edge">
<title>2&#45;&gt;5</title>
<path fill="none" stroke="black" d="M27.53,-105.5C35.43,-117.52 46.59,-134.51 54.48,-146.51"/>
</g>
<!-- 3 -->
<g id="node3" class="node">
<title>3</title>
<ellipse fill="none" stroke="black" cx="187" cy="-18" rx="18" ry="18"/>
<text text-anchor="middle" x="187" y="-13.32" font-family="Times,serif" font-size="14.00">3</text>
</g>
<!-- 6 -->
<g id="node6" class="node">
<title>6</title>
<ellipse fill="none" stroke="black" cx="164" cy="-90" rx="18" ry="18"/>
<text text-anchor="middle" x="164" y="-85.33" font-family="Times,serif" font-size="14.00">6</text>
</g>
<!-- 3&#45;&gt;6 -->
<g id="edge6" class="edge">
<title>3&#45;&gt;6</title>
<path fill="none" stroke="black" d="M181.55,-35.59C177.88,-46.75 173.07,-61.4 169.41,-72.53"/>
</g>
<!-- 8 -->
<g id="node8" class="node">
<title>8</title>
<ellipse fill="none" stroke="black" cx="187" cy="-162" rx="18" ry="18"/>
<text text-anchor="middle" x="187" y="-157.32" font-family="Times,serif" font-size="14.00">8</text>
</g>
<!-- 3&#45;&gt;8 -->
<g id="edge7" class="edge">
<title>3&#45;&gt;8</title>
<path fill="none" stroke="black" d="M188.62,-36.17C189.52,-46.53 190.55,-60.01 191,-72 191.6,-87.99 191.6,-92.01 191,-108 190.55,-119.99 189.52,-133.47 188.62,-143.83"/>
</g>
<!-- 6&#45;&gt;8 -->
<g id="edge1" class="edge">
<title>6&#45;&gt;8</title>
<path fill="none" stroke="black" d="M169.45,-107.59C173.12,-118.75 177.93,-133.4 181.59,-144.53"/>
</g>
<!-- 7 -->
<g id="node7" class="node">
<title>7</title>
<ellipse fill="none" stroke="black" cx="241" cy="-18" rx="18" ry="18"/>
<text text-anchor="middle" x="241" y="-13.32" font-family="Times,serif" font-size="14.00">7</text>
</g>
</g>
</svg>
