<?xml version="1.0" encoding="UTF-8" standalone="no"?>
<!DOCTYPE svg PUBLIC "-//W3C//DTD SVG 1.1//EN"
 "http://www.w3.org/Graphics/SVG/1.1/DTD/svg11.dtd">
<!-- Generated by graphviz version 9.0.0 (20230911.1827)
 -->
<!-- Pages: 1 -->
<svg width="260pt" height="207pt"
 viewBox="0.00 0.00 260.00 207.40" xmlns="http://www.w3.org/2000/svg" xmlns:xlink="http://www.w3.org/1999/xlink">
<g id="graph0" class="graph" transform="scale(1 1) rotate(0) translate(4 203.4)">
<polygon fill="white" stroke="none" points="-4,4 -4,-203.4 256,-203.4 256,4 -4,4"/>
<!-- 1 -->
<g id="node1" class="node">
<title>1</title>
<ellipse fill="none" stroke="black" cx="18" cy="-35.4" rx="18" ry="18"/>
<text text-anchor="middle" x="18" y="-30.73" font-family="Times,serif" font-size="14.00">1</text>
</g>
<!-- 2 -->
<g id="node2" class="node">
<title>2</title>
<ellipse fill="none" stroke="black" cx="162" cy="-35.4" rx="18" ry="18"/>
<text text-anchor="middle" x="162" y="-30.73" font-family="Times,serif" font-size="14.00">2</text>
</g>
<!-- 1&#45;&gt;2 -->
<g id="edge2" class="edge">
<title>1&#45;&gt;2</title>
<path fill="none" stroke="black" d="M33.57,-45.2C43.82,-51.49 58.14,-59.08 72,-62.4 87.56,-66.14 92.44,-66.14 108,-62.4 117.96,-60.01 128.16,-55.42 136.91,-50.69"/>
<polygon fill="black" stroke="black" points="145.38,-45.81 138.96,-54.71 142.1,-47.7 136.71,-50.81 136.71,-50.81 136.71,-50.81 142.1,-47.7 134.47,-46.91 145.38,-45.81"/>
</g>
<!-- 3 -->
<g id="node3" class="node">
<title>3</title>
<ellipse fill="none" stroke="black" cx="90" cy="-35.4" rx="18" ry="18"/>
<text text-anchor="middle" x="90" y="-30.73" font-family="Times,serif" font-size="14.00">3</text>
</g>
<!-- 1&#45;&gt;3 -->
<g id="edge3" class="edge">
<title>1&#45;&gt;3</title>
<path fill="none" stroke="black" d="M36.3,-35.4C43.68,-35.4 52.48,-35.4 60.75,-35.4"/>
<polygon fill="black" stroke="black" points="70.68,-35.4 60.68,-39.9 66.9,-35.4 60.68,-35.4 60.68,-35.4 60.68,-35.4 66.9,-35.4 60.68,-30.9 70.68,-35.4"/>
</g>
<!-- 4 -->
<g id="node4" class="node">
<title>4</title>
<ellipse fill="none" stroke="black" cx="234" cy="-35.4" rx="18" ry="18"/>
<text text-anchor="middle" x="234" y="-30.73" font-family="Times,serif" font-size="14.00">4</text>
</g>
<!-- 1&#45;&gt;4 -->
<g id="edge1" class="edge">
<title>1&#45;&gt;4</title>
<path fill="none" stroke="black" d="M33.57,-25.6C43.82,-19.32 58.14,-11.73 72,-8.4 118.67,2.8 133.33,2.8 180,-8.4 189.96,-10.79 200.16,-15.38 208.91,-20.11"/>
<polygon fill="black" stroke="black" points="217.38,-24.99 206.47,-23.89 214.1,-23.1 208.71,-20 208.71,-20 208.71,-20 214.1,-23.1 210.96,-16.1 217.38,-24.99"/>
</g>
<!-- 2&#45;&gt;4 -->
<g id="edge6" class="edge">
<title>2&#45;&gt;4</title>
<path fill="none" stroke="black" d="M179.24,-29.6C187.1,-28.72 196.76,-28.45 205.71,-28.8"/>
<polygon fill="black" stroke="black" points="215.64,-29.52 205.34,-33.29 211.87,-29.25 205.66,-28.8 205.66,-28.8 205.66,-28.8 211.87,-29.25 205.99,-24.31 215.64,-29.52"/>
</g>
<!-- 3&#45;&gt;2 -->
<g id="edge4" class="edge">
<title>3&#45;&gt;2</title>
<path fill="none" stroke="black" d="M108.3,-35.4C115.68,-35.4 124.48,-35.4 132.75,-35.4"/>
<polygon fill="black" stroke="black" points="142.68,-35.4 132.68,-39.9 138.9,-35.4 132.68,-35.4 132.68,-35.4 132.68,-35.4 138.9,-35.4 132.68,-30.9 142.68,-35.4"/>
</g>
<!-- 4&#45;&gt;2 -->
<g id="edge5" class="edge">
<title>4&#45;&gt;2</title>
<path fill="none" stroke="black" d="M216.85,-41.19C209,-42.08 199.35,-42.35 190.4,-42.01"/>
<polygon fill="black" stroke="black" points="180.45,-41.29 190.75,-37.52 184.22,-41.56 190.42,-42.01 190.42,-42.01 190.42,-42.01 184.22,-41.56 190.1,-46.5 180.45,-41.29"/>
</g>
<!-- 5 -->
<g id="node5" class="node">
<title>5</title>
<ellipse fill="none" stroke="black" cx="162" cy="-127.4" rx="18" ry="18"/>
<text text-anchor="middle" x="162" y="-122.73" font-family="Times,serif" font-size="14.00">5</text>
</g>
<!-- 6 -->
<g id="node6" class="node">
<title>6</title>
<ellipse fill="none" stroke="black" cx="18" cy="-127.4" rx="18" ry="18"/>
<text text-anchor="middle" x="18" y="-122.73" font-family="Times,serif" font-size="14.00">6</text>
</g>
<!-- 7 -->
<g id="node7" class="node">
<title>7</title>
<ellipse fill="none" stroke="black" cx="90" cy="-127.4" rx="18" ry="18"/>
<text text-anchor="middle" x="90" y="-122.73" font-family="Times,serif" font-size="14.00">7</text>
</g>
<!-- 6&#45;&gt;7 -->
<g id="edge7" class="edge">
<title>6&#45;&gt;7</title>
<path fill="none" stroke="black" d="M36.3,-127.4C43.68,-127.4 52.48,-127.4 60.75,-127.4"/>
<polygon fill="black" stroke="black" points="70.68,-127.4 60.68,-131.9 66.9,-127.4 60.68,-127.4 60.68,-127.4 60.68,-127.4 66.9,-127.4 60.68,-122.9 70.68,-127.4"/>
</g>
<!-- 7&#45;&gt;5 -->
<g id="edge8" class="edge">
<title>7&#45;&gt;5</title>
<path fill="none" stroke="black" d="M108.3,-127.4C115.68,-127.4 124.48,-127.4 132.75,-127.4"/>
<polygon fill="black" stroke="black" points="142.68,-127.4 132.68,-131.9 138.9,-127.4 132.68,-127.4 132.68,-127.4 132.68,-127.4 138.9,-127.4 132.68,-122.9 142.68,-127.4"/>
</g>
<!-- 8 -->
<g id="node8" class="node">
<title>8</title>
<ellipse fill="none" stroke="black" cx="18" cy="-181.4" rx="18" ry="18"/>
<text text-anchor="middle" x="18" y="-176.73" font-family="Times,serif" font-size="14.00">8</text>
</g>
</g>
</svg>
