<?xml version="1.0" encoding="UTF-8" standalone="no"?>
<!DOCTYPE svg PUBLIC "-//W3C//DTD SVG 1.1//EN"
 "http://www.w3.org/Graphics/SVG/1.1/DTD/svg11.dtd">
<!-- Generated by graphviz version 9.0.0 (20230911.1827)
 -->
<!-- Pages: 1 -->
<svg width="918pt" height="221pt"
 viewBox="0.00 0.00 917.65 221.05" xmlns="http://www.w3.org/2000/svg" xmlns:xlink="http://www.w3.org/1999/xlink">
<g id="graph0" class="graph" transform="scale(1 1) rotate(0) translate(4 217.05)">
<polygon fill="white" stroke="none" points="-4,4 -4,-217.05 913.65,-217.05 913.65,4 -4,4"/>
<!-- 1 -->
<g id="node1" class="node">
<title>1</title>
<ellipse fill="none" stroke="black" cx="238.83" cy="-63" rx="18" ry="18"/>
<text text-anchor="middle" x="238.83" y="-58.33" font-family="Times,serif" font-size="14.00">1</text>
</g>
<!-- 5 -->
<g id="node5" class="node">
<title>5</title>
<ellipse fill="none" stroke="black" cx="540.65" cy="-63" rx="18" ry="18"/>
<text text-anchor="middle" x="540.65" y="-58.33" font-family="Times,serif" font-size="14.00">5</text>
</g>
<!-- 1&#45;&gt;5 -->
<g id="edge1" class="edge">
<title>1&#45;&gt;5</title>
<path fill="none" stroke="black" d="M257.24,-63C306.92,-63 449.68,-63 511.05,-63"/>
<polygon fill="black" stroke="black" points="520.97,-63 510.97,-67.5 517.19,-63 510.97,-63 510.97,-63 510.97,-63 517.19,-63 510.97,-58.5 520.97,-63"/>
<text text-anchor="middle" x="500.15" y="-66.95" font-family="Times,serif" font-size="14.00">2</text>
</g>
<!-- 2 -->
<g id="node2" class="node">
<title>2</title>
<ellipse fill="none" stroke="black" cx="891.65" cy="-71" rx="18" ry="18"/>
<text text-anchor="middle" x="891.65" y="-66.33" font-family="Times,serif" font-size="14.00">2</text>
</g>
<!-- 3 -->
<g id="node3" class="node">
<title>3</title>
<ellipse fill="none" stroke="black" cx="810.65" cy="-71" rx="18" ry="18"/>
<text text-anchor="middle" x="810.65" y="-66.33" font-family="Times,serif" font-size="14.00">3</text>
</g>
<!-- 3&#45;&gt;2 -->
<g id="edge2" class="edge">
<title>3&#45;&gt;2</title>
<path fill="none" stroke="black" d="M828.79,-71C838.56,-71 851.05,-71 862.24,-71"/>
<polygon fill="black" stroke="black" points="872.05,-71 862.05,-75.5 868.27,-71 862.05,-71 862.05,-71 862.05,-71 868.27,-71 862.05,-66.5 872.05,-71"/>
<text text-anchor="middle" x="851.15" y="-74.95" font-family="Times,serif" font-size="14.00">5</text>
</g>
<!-- 4 -->
<g id="node4" class="node">
<title>4</title>
<ellipse fill="none" stroke="black" cx="702.65" cy="-85" rx="18" ry="18"/>
<text text-anchor="middle" x="702.65" y="-80.33" font-family="Times,serif" font-size="14.00">7</text>
</g>
<!-- 4&#45;&gt;2 -->
<g id="edge5" class="edge">
<title>4&#45;&gt;2</title>
<path fill="none" stroke="black" d="M718.83,-93.66C724.81,-96.6 731.86,-99.52 738.65,-101 777.76,-109.51 789,-103.47 828.65,-98 840.83,-96.32 844.23,-96.55 855.65,-92 859.32,-90.54 863.04,-88.72 866.63,-86.77"/>
<polygon fill="black" stroke="black" points="875.16,-81.72 868.85,-90.68 871.91,-83.64 866.56,-86.81 866.56,-86.81 866.56,-86.81 871.91,-83.64 864.26,-82.94 875.16,-81.72"/>
<text text-anchor="middle" x="810.65" y="-106.95" font-family="Times,serif" font-size="14.00">2</text>
</g>
<!-- 4&#45;&gt;3 -->
<g id="edge3" class="edge">
<title>4&#45;&gt;3</title>
<path fill="none" stroke="black" d="M720.68,-82.75C737.04,-80.59 762.06,-77.29 781.41,-74.73"/>
<polygon fill="black" stroke="black" points="791.1,-73.45 781.78,-79.22 787.35,-73.95 781.19,-74.76 781.19,-74.76 781.19,-74.76 787.35,-73.95 780.6,-70.3 791.1,-73.45"/>
<text text-anchor="middle" x="756.65" y="-83.95" font-family="Times,serif" font-size="14.00">2</text>
</g>
<!-- 4&#45;&gt;5 -->
<g id="edge4" class="edge">
<title>4&#45;&gt;5</title>
<path fill="none" stroke="black" d="M684.58,-83.7C660.44,-81.73 614.97,-77.5 576.65,-71 574.2,-70.58 571.67,-70.11 569.14,-69.59"/>
<polygon fill="black" stroke="black" points="559.5,-67.47 570.23,-65.22 563.19,-68.29 569.27,-69.62 569.27,-69.62 569.27,-69.62 563.19,-68.29 568.3,-74.01 559.5,-67.47"/>
<text text-anchor="middle" x="621.65" y="-82.95" font-family="Times,serif" font-size="14.00">3</text>
</g>
<!-- 6 -->
<g id="node6" class="node">
<title>6</title>
<ellipse fill="none" stroke="black" cx="621.65" cy="-36" rx="18" ry="18"/>
<text text-anchor="middle" x="621.65" y="-31.32" font-family="Times,serif" font-size="14.00">6</text>
</g>
<!-- 5&#45;&gt;6 -->
<g id="edge6" class="edge">
<title>5&#45;&gt;6</title>
<path fill="none" stroke="black" d="M558.02,-57.41C568.4,-53.86 582.07,-49.19 593.99,-45.11"/>
<polygon fill="black" stroke="black" points="603.15,-41.98 595.14,-49.47 599.57,-43.2 593.69,-45.22 593.69,-45.22 593.69,-45.22 599.57,-43.2 592.23,-40.96 603.15,-41.98"/>
<text text-anchor="middle" x="581.15" y="-53.95" font-family="Times,serif" font-size="14.00">2</text>
</g>
<!-- 6&#45;&gt;4 -->
<g id="edge7" class="edge">
<title>6&#45;&gt;4</title>
<path fill="none" stroke="black" d="M638.48,-43.39C647.01,-47.57 657.62,-53.08 666.65,-58.75 670.89,-61.41 675.27,-64.44 679.43,-67.47"/>
<polygon fill="black" stroke="black" points="687.09,-73.24 676.39,-70.82 684.07,-70.97 679.1,-67.23 679.1,-67.23 679.1,-67.23 684.07,-70.97 681.81,-63.63 687.09,-73.24"/>
<text text-anchor="middle" x="662.15" y="-61.95" font-family="Times,serif" font-size="14.00">2</text>
</g>
<!-- 7 -->
<g id="node7" class="node">
<title>7</title>
<ellipse fill="none" stroke="black" cx="756.65" cy="-18" rx="18" ry="18"/>
<text text-anchor="middle" x="756.65" y="-13.32" font-family="Times,serif" font-size="14.00">7</text>
</g>
<!-- 6&#45;&gt;7 -->
<g id="edge8" class="edge">
<title>6&#45;&gt;7</title>
<path fill="none" stroke="black" d="M639.77,-33.68C662.01,-30.67 701.15,-25.38 727.72,-21.78"/>
<polygon fill="black" stroke="black" points="737.39,-20.47 728.09,-26.27 733.65,-20.98 727.48,-21.81 727.48,-21.81 727.48,-21.81 733.65,-20.98 726.88,-17.35 737.39,-20.47"/>
<text text-anchor="middle" x="662.15" y="-35.95" font-family="Times,serif" font-size="14.00">1</text>
</g>
<!-- 7&#45;&gt;2 -->
<g id="edge9" class="edge">
<title>7&#45;&gt;2</title>
<path fill="none" stroke="black" d="M774.87,-17.77C789.61,-18.12 811.17,-19.95 828.65,-26.75 843.63,-32.58 858.35,-42.84 869.69,-52.02"/>
<polygon fill="black" stroke="black" points="877.07,-58.26 866.53,-55.24 874.19,-55.82 869.43,-51.8 869.43,-51.8 869.43,-51.8 874.19,-55.82 872.34,-48.36 877.07,-58.26"/>
<text text-anchor="middle" x="810.65" y="-30.95" font-family="Times,serif" font-size="14.00">7</text>
</g>
<!-- 8 -->
<g id="node8" class="node">
<title>8</title>
<ellipse fill="none" stroke="black" cx="238.83" cy="-117" rx="18" ry="18"/>
<text text-anchor="middle" x="238.83" y="-112.33" font-family="Times,serif" font-size="14.00">8</text>
</g>
<!-- &#45; 3 [color=black constraint=true style=solid]
	1 &#45; -->
<g id="node9" class="node">
<title>&#45; 3 [color=black constraint=true style=solid]
	1 &#45;</title>
<ellipse fill="none" stroke="black" cx="238.83" cy="-183" rx="238.83" ry="30.05"/>
<text text-anchor="middle" x="238.83" y="-186.95" font-family="Times,serif" font-size="14.00">&#45; 3 [color=black constraint=true style=solid]</text>
<text text-anchor="middle" x="238.83" y="-169.7" font-family="Times,serif" font-size="14.00">	1 &#45;</text>
</g>
</g>
</svg>
