<?xml version="1.0" encoding="UTF-8" standalone="no"?>
<!DOCTYPE svg PUBLIC "-//W3C//DTD SVG 1.1//EN"
 "http://www.w3.org/Graphics/SVG/1.1/DTD/svg11.dtd">
<!-- Generated by graphviz version 9.0.0 (20230911.1827)
 -->
<!-- Pages: 1 -->
<svg width="449pt" height="179pt"
 viewBox="0.00 0.00 449.00 179.00" xmlns="http://www.w3.org/2000/svg" xmlns:xlink="http://www.w3.org/1999/xlink">
<g id="graph0" class="graph" transform="scale(1 1) rotate(0) translate(4 175)">
<polygon fill="white" stroke="none" points="-4,4 -4,-175 445,-175 445,4 -4,4"/>
<!-- 1 -->
<g id="node1" class="node">
<title>1</title>
<ellipse fill="none" stroke="black" cx="18" cy="-78" rx="18" ry="18"/>
<text text-anchor="middle" x="18" y="-73.33" font-family="Times,serif" font-size="14.00">1</text>
</g>
<!-- 3 -->
<g id="node3" class="node">
<title>3</title>
<ellipse fill="none" stroke="black" cx="180" cy="-153" rx="18" ry="18"/>
<text text-anchor="middle" x="180" y="-148.32" font-family="Times,serif" font-size="14.00">3</text>
</g>
<!-- 1&#45;&gt;3 -->
<g id="edge1" class="edge">
<title>1&#45;&gt;3</title>
<path fill="none" stroke="black" d="M33.81,-87.3C39.98,-91.06 47.26,-95.37 54,-99 89.17,-117.97 98.02,-122.86 135,-138 140.46,-140.24 146.39,-142.42 152.08,-144.4"/>
<polygon fill="black" stroke="black" points="161.37,-147.52 150.46,-148.6 157.79,-146.31 151.89,-144.33 151.89,-144.33 151.89,-144.33 157.79,-146.31 153.33,-140.07 161.37,-147.52"/>
</g>
<!-- 4 -->
<g id="node4" class="node">
<title>4</title>
<ellipse fill="none" stroke="black" cx="99" cy="-78" rx="18" ry="18"/>
<text text-anchor="middle" x="99" y="-73.33" font-family="Times,serif" font-size="14.00">4</text>
</g>
<!-- 1&#45;&gt;4 -->
<g id="edge2" class="edge">
<title>1&#45;&gt;4</title>
<path fill="none" stroke="black" d="M36.14,-78C45.91,-78 58.4,-78 69.59,-78"/>
<polygon fill="black" stroke="black" points="79.4,-78 69.4,-82.5 75.62,-78 69.4,-78 69.4,-78 69.4,-78 75.62,-78 69.4,-73.5 79.4,-78"/>
<text text-anchor="middle" x="58.5" y="-81.95" font-family="Times,serif" font-size="14.00">7</text>
</g>
<!-- 5 -->
<g id="node5" class="node">
<title>5</title>
<ellipse fill="none" stroke="black" cx="180" cy="-46" rx="18" ry="18"/>
<text text-anchor="middle" x="180" y="-41.33" font-family="Times,serif" font-size="14.00">5</text>
</g>
<!-- 1&#45;&gt;5 -->
<g id="edge3" class="edge">
<title>1&#45;&gt;5</title>
<path fill="none" stroke="black" d="M31.45,-65.48C43.11,-54.71 61.61,-39.96 81,-33.75 104.31,-26.28 132.1,-30.96 152.13,-36.55"/>
<polygon fill="black" stroke="black" points="161.49,-39.41 150.61,-40.79 157.87,-38.31 151.92,-36.49 151.92,-36.49 151.92,-36.49 157.87,-38.31 153.24,-32.18 161.49,-39.41"/>
<text text-anchor="middle" x="99" y="-37.95" font-family="Times,serif" font-size="14.00">2</text>
</g>
<!-- 2 -->
<g id="node2" class="node">
<title>2</title>
<ellipse fill="none" stroke="black" cx="423" cy="-80" rx="18" ry="18"/>
<text text-anchor="middle" x="423" y="-75.33" font-family="Times,serif" font-size="14.00">2</text>
</g>
<!-- 3&#45;&gt;2 -->
<g id="edge4" class="edge">
<title>3&#45;&gt;2</title>
<path fill="none" stroke="black" d="M198.09,-150.43C234.08,-144.65 319.9,-128.88 387,-101 390.64,-99.49 394.36,-97.64 397.94,-95.67"/>
<polygon fill="black" stroke="black" points="406.47,-90.62 400.16,-99.59 403.22,-92.54 397.87,-95.71 397.87,-95.71 397.87,-95.71 403.22,-92.54 395.57,-91.84 406.47,-90.62"/>
<text text-anchor="middle" x="301.5" y="-132.95" font-family="Times,serif" font-size="14.00">5</text>
</g>
<!-- 4&#45;&gt;2 -->
<g id="edge7" class="edge">
<title>4&#45;&gt;2</title>
<path fill="none" stroke="black" d="M110.47,-63.69C127.49,-41.18 161.08,0 179,0 179,0 179,0 343,0 373.95,0 396.86,-30.68 409.82,-54.04"/>
<polygon fill="black" stroke="black" points="414.35,-62.73 405.74,-55.95 412.61,-59.38 409.73,-53.86 409.73,-53.86 409.73,-53.86 412.61,-59.38 413.72,-51.78 414.35,-62.73"/>
<text text-anchor="middle" x="261" y="-3.95" font-family="Times,serif" font-size="14.00">2</text>
</g>
<!-- 4&#45;&gt;3 -->
<g id="edge5" class="edge">
<title>4&#45;&gt;3</title>
<path fill="none" stroke="black" d="M112.69,-90.05C125.02,-101.75 143.93,-119.71 158.41,-133.45"/>
<polygon fill="black" stroke="black" points="165.46,-140.14 155.1,-136.52 162.71,-137.54 158.2,-133.26 158.2,-133.26 158.2,-133.26 162.71,-137.54 161.3,-129.99 165.46,-140.14"/>
<text text-anchor="middle" x="139.5" y="-120.95" font-family="Times,serif" font-size="14.00">2</text>
</g>
<!-- 4&#45;&gt;5 -->
<g id="edge6" class="edge">
<title>4&#45;&gt;5</title>
<path fill="none" stroke="black" d="M115.99,-71.52C126.52,-67.26 140.55,-61.57 152.71,-56.65"/>
<polygon fill="black" stroke="black" points="161.64,-53.03 154.06,-60.96 158.13,-54.45 152.37,-56.79 152.37,-56.79 152.37,-56.79 158.13,-54.45 150.68,-52.62 161.64,-53.03"/>
<text text-anchor="middle" x="139.5" y="-65.95" font-family="Times,serif" font-size="14.00">3</text>
</g>
<!-- 6 -->
<g id="node6" class="node">
<title>6</title>
<ellipse fill="none" stroke="black" cx="261" cy="-80" rx="18" ry="18"/>
<text text-anchor="middle" x="261" y="-75.33" font-family="Times,serif" font-size="14.00">6</text>
</g>
<!-- 5&#45;&gt;6 -->
<g id="edge8" class="edge">
<title>5&#45;&gt;6</title>
<path fill="none" stroke="black" d="M196.99,-52.88C207.59,-57.44 221.74,-63.53 233.95,-68.79"/>
<polygon fill="black" stroke="black" points="242.92,-72.65 231.95,-72.83 239.44,-71.15 233.73,-68.69 233.73,-68.69 233.73,-68.69 239.44,-71.15 235.51,-64.56 242.92,-72.65"/>
<text text-anchor="middle" x="220.5" y="-67.95" font-family="Times,serif" font-size="14.00">2</text>
</g>
<!-- 6&#45;&gt;4 -->
<g id="edge9" class="edge">
<title>6&#45;&gt;4</title>
<path fill="none" stroke="black" d="M242.96,-82.93C237.27,-83.77 230.88,-84.58 225,-85 185.09,-87.84 174.87,-86.33 135,-83 132.71,-82.81 130.33,-82.57 127.95,-82.29"/>
<polygon fill="black" stroke="black" points="118.25,-81 128.76,-77.86 122,-81.5 128.17,-82.32 128.17,-82.32 128.17,-82.32 122,-81.5 127.57,-86.78 118.25,-81"/>
<text text-anchor="middle" x="180" y="-89.95" font-family="Times,serif" font-size="14.00">2</text>
</g>
<!-- 7 -->
<g id="node7" class="node">
<title>7</title>
<ellipse fill="none" stroke="black" cx="342" cy="-80" rx="18" ry="18"/>
<text text-anchor="middle" x="342" y="-75.33" font-family="Times,serif" font-size="14.00">7</text>
</g>
<!-- 6&#45;&gt;7 -->
<g id="edge10" class="edge">
<title>6&#45;&gt;7</title>
<path fill="none" stroke="black" d="M279.14,-80C288.91,-80 301.4,-80 312.59,-80"/>
<polygon fill="black" stroke="black" points="322.4,-80 312.4,-84.5 318.62,-80 312.4,-80 312.4,-80 312.4,-80 318.62,-80 312.4,-75.5 322.4,-80"/>
<text text-anchor="middle" x="301.5" y="-83.95" font-family="Times,serif" font-size="14.00">1</text>
</g>
<!-- 7&#45;&gt;2 -->
<g id="edge11" class="edge">
<title>7&#45;&gt;2</title>
<path fill="none" stroke="black" d="M360.14,-80C369.91,-80 382.4,-80 393.59,-80"/>
<polygon fill="black" stroke="black" points="403.4,-80 393.4,-84.5 399.62,-80 393.4,-80 393.4,-80 393.4,-80 399.62,-80 393.4,-75.5 403.4,-80"/>
<text text-anchor="middle" x="382.5" y="-83.95" font-family="Times,serif" font-size="14.00">7</text>
</g>
<!-- 8 -->
<g id="node8" class="node">
<title>8</title>
<ellipse fill="none" stroke="black" cx="18" cy="-132" rx="18" ry="18"/>
<text text-anchor="middle" x="18" y="-127.33" font-family="Times,serif" font-size="14.00">8</text>
</g>
</g>
</svg>
