<?xml version="1.0" encoding="UTF-8" standalone="no"?>
<!DOCTYPE svg PUBLIC "-//W3C//DTD SVG 1.1//EN"
 "http://www.w3.org/Graphics/SVG/1.1/DTD/svg11.dtd">
<!-- Generated by graphviz version 9.0.0 (20230911.1827)
 -->
<!-- Pages: 1 -->
<svg width="449pt" height="179pt"
 viewBox="0.00 0.00 449.00 179.00" xmlns="http://www.w3.org/2000/svg" xmlns:xlink="http://www.w3.org/1999/xlink">
<g id="graph0" class="graph" transform="scale(1 1) rotate(0) translate(4 175)">
<polygon fill="white" stroke="none" points="-4,4 -4,-175 445,-175 445,4 -4,4"/>
<!-- 1 -->
<g id="node1" class="node">
<title>1</title>
<ellipse fill="none" stroke="black" cx="18" cy="-78" rx="18" ry="18"/>
<text text-anchor="middle" x="18" y="-73.33" font-family="Times,serif" font-size="14.00">1</text>
</g>
<!-- 3 -->
<g id="node3" class="node">
<title>3</title>
<ellipse fill="none" stroke="black" cx="180" cy="-153" rx="18" ry="18"/>
<text text-anchor="middle" x="180" y="-148.32" font-family="Times,serif" font-size="14.00">3</text>
</g>
<!-- 1&#45;&gt;3 -->
<g id="edge1" class="edge">
<title>1&#45;&gt;3</title>
<path fill="none" stroke="black" d="M33.81,-87.3C39.98,-91.06 47.26,-95.37 54,-99 89.17,-117.97 98.02,-122.86 135,-138 143.96,-141.67 154.19,-145.2 162.53,-147.9"/>
</g>
<!-- 4 -->
<g id="node4" class="node">
<title>4</title>
<ellipse fill="none" stroke="black" cx="99" cy="-78" rx="18" ry="18"/>
<text text-anchor="middle" x="99" y="-73.33" font-family="Times,serif" font-size="14.00">4</text>
</g>
<!-- 1&#45;&gt;4 -->
<g id="edge2" class="edge">
<title>1&#45;&gt;4</title>
<path fill="none" stroke="black" d="M36.14,-78C49.3,-78 67.4,-78 80.62,-78"/>
<text text-anchor="middle" x="58.5" y="-81.95" font-family="Times,serif" font-size="14.00">7</text>
</g>
<!-- 5 -->
<g id="node5" class="node">
<title>5</title>
<ellipse fill="none" stroke="black" cx="180" cy="-46" rx="18" ry="18"/>
<text text-anchor="middle" x="180" y="-41.33" font-family="Times,serif" font-size="14.00">5</text>
</g>
<!-- 1&#45;&gt;5 -->
<g id="edge3" class="edge">
<title>1&#45;&gt;5</title>
<path fill="none" stroke="black" d="M31.45,-65.48C43.11,-54.71 61.61,-39.96 81,-33.75 108.76,-24.86 142.87,-33.18 162.65,-39.77"/>
<text text-anchor="middle" x="99" y="-37.95" font-family="Times,serif" font-size="14.00">2</text>
</g>
<!-- 2 -->
<g id="node2" class="node">
<title>2</title>
<ellipse fill="none" stroke="black" cx="423" cy="-80" rx="18" ry="18"/>
<text text-anchor="middle" x="423" y="-75.33" font-family="Times,serif" font-size="14.00">2</text>
</g>
<!-- 3&#45;&gt;2 -->
<g id="edge4" class="edge">
<title>3&#45;&gt;2</title>
<path fill="none" stroke="black" d="M198.09,-150.43C234.08,-144.65 319.9,-128.88 387,-101 394.07,-98.06 401.4,-93.87 407.52,-90"/>
<text text-anchor="middle" x="301.5" y="-132.95" font-family="Times,serif" font-size="14.00">5</text>
</g>
<!-- 4&#45;&gt;2 -->
<g id="edge7" class="edge">
<title>4&#45;&gt;2</title>
<path fill="none" stroke="black" d="M110.47,-63.69C127.49,-41.18 161.08,0 179,0 179,0 179,0 343,0 378.53,0 403.47,-40.43 414.92,-63.81"/>
<text text-anchor="middle" x="261" y="-3.95" font-family="Times,serif" font-size="14.00">2</text>
</g>
<!-- 4&#45;&gt;3 -->
<g id="edge5" class="edge">
<title>4&#45;&gt;3</title>
<path fill="none" stroke="black" d="M112.69,-90.05C127.43,-104.05 151.61,-127 166.34,-140.98"/>
<text text-anchor="middle" x="139.5" y="-120.95" font-family="Times,serif" font-size="14.00">2</text>
</g>
<!-- 4&#45;&gt;5 -->
<g id="edge6" class="edge">
<title>4&#45;&gt;5</title>
<path fill="none" stroke="black" d="M115.99,-71.52C129.6,-66.01 149.08,-58.12 162.77,-52.58"/>
<text text-anchor="middle" x="139.5" y="-65.95" font-family="Times,serif" font-size="14.00">3</text>
</g>
<!-- 6 -->
<g id="node6" class="node">
<title>6</title>
<ellipse fill="none" stroke="black" cx="261" cy="-80" rx="18" ry="18"/>
<text text-anchor="middle" x="261" y="-75.33" font-family="Times,serif" font-size="14.00">6</text>
</g>
<!-- 5&#45;&gt;6 -->
<g id="edge8" class="edge">
<title>5&#45;&gt;6</title>
<path fill="none" stroke="black" d="M196.99,-52.88C210.69,-58.78 230.34,-67.23 244.04,-73.13"/>
<text text-anchor="middle" x="220.5" y="-67.95" font-family="Times,serif" font-size="14.00">2</text>
</g>
<!-- 6&#45;&gt;4 -->
<g id="edge9" class="edge">
<title>6&#45;&gt;4</title>
<path fill="none" stroke="black" d="M242.96,-82.93C237.27,-83.77 230.88,-84.58 225,-85 185.09,-87.84 174.87,-86.33 135,-83 129.13,-82.51 122.74,-81.68 117.04,-80.84"/>
<text text-anchor="middle" x="180" y="-89.95" font-family="Times,serif" font-size="14.00">2</text>
</g>
<!-- 7 -->
<g id="node7" class="node">
<title>7</title>
<ellipse fill="none" stroke="black" cx="342" cy="-80" rx="18" ry="18"/>
<text text-anchor="middle" x="342" y="-75.33" font-family="Times,serif" font-size="14.00">7</text>
</g>
<!-- 6&#45;&gt;7 -->
<g id="edge10" class="edge">
<title>6&#45;&gt;7</title>
<path fill="none" stroke="black" d="M279.14,-80C292.3,-80 310.4,-80 323.62,-80"/>
<text text-anchor="middle" x="301.5" y="-83.95" font-family="Times,serif" font-size="14.00">1</text>
</g>
<!-- 7&#45;&gt;2 -->
<g id="edge11" class="edge">
<title>7&#45;&gt;2</title>
<path fill="none" stroke="black" d="M360.14,-80C373.3,-80 391.4,-80 404.62,-80"/>
<text text-anchor="middle" x="382.5" y="-83.95" font-family="Times,serif" font-size="14.00">7</text>
</g>
<!-- 8 -->
<g id="node8" class="node">
<title>8</title>
<ellipse fill="none" stroke="black" cx="18" cy="-132" rx="18" ry="18"/>
<text text-anchor="middle" x="18" y="-127.33" font-family="Times,serif" font-size="14.00">8</text>
</g>
</g>
</svg>
