<?xml version="1.0" encoding="UTF-8" standalone="no"?>
<!DOCTYPE svg PUBLIC "-//W3C//DTD SVG 1.1//EN"
 "http://www.w3.org/Graphics/SVG/1.1/DTD/svg11.dtd">
<!-- Generated by graphviz version 9.0.0 (20230911.1827)
 -->
<!-- Pages: 1 -->
<svg width="267pt" height="188pt"
 viewBox="0.00 0.00 267.00 188.00" xmlns="http://www.w3.org/2000/svg" xmlns:xlink="http://www.w3.org/1999/xlink">
<g id="graph0" class="graph" transform="scale(1 1) rotate(0) translate(4 184)">
<polygon fill="white" stroke="none" points="-4,4 -4,-184 263,-184 263,4 -4,4"/>
<!-- 1 -->
<g id="node1" class="node">
<title>1</title>
<ellipse fill="none" stroke="black" cx="72" cy="-162" rx="18" ry="18"/>
<text text-anchor="middle" x="72" y="-157.32" font-family="Times,serif" font-size="14.00">1</text>
</g>
<!-- 2 -->
<g id="node2" class="node">
<title>2</title>
<ellipse fill="none" stroke="black" cx="18" cy="-90" rx="18" ry="18"/>
<text text-anchor="middle" x="18" y="-85.33" font-family="Times,serif" font-size="14.00">2</text>
</g>
<!-- 1&#45;&gt;2 -->
<g id="edge2" class="edge">
<title>1&#45;&gt;2</title>
<path fill="none" stroke="black" d="M61.33,-147.17C51.86,-134.9 38.11,-117.06 28.65,-104.8"/>
</g>
<!-- 4 -->
<g id="node4" class="node">
<title>4</title>
<ellipse fill="none" stroke="black" cx="72" cy="-90" rx="18" ry="18"/>
<text text-anchor="middle" x="72" y="-85.33" font-family="Times,serif" font-size="14.00">4</text>
</g>
<!-- 1&#45;&gt;4 -->
<g id="edge5" class="edge">
<title>1&#45;&gt;4</title>
<path fill="none" stroke="black" d="M72,-143.7C72,-132.85 72,-118.92 72,-108.1"/>
</g>
<!-- 5 -->
<g id="node5" class="node">
<title>5</title>
<ellipse fill="none" stroke="black" cx="64" cy="-18" rx="18" ry="18"/>
<text text-anchor="middle" x="64" y="-13.32" font-family="Times,serif" font-size="14.00">5</text>
</g>
<!-- 1&#45;&gt;5 -->
<g id="edge3" class="edge">
<title>1&#45;&gt;5</title>
<path fill="none" stroke="black" d="M81.8,-146.43C88.09,-136.18 95.67,-121.86 99,-108 102.73,-92.44 103.6,-87.32 99,-72 94.43,-56.79 83.93,-41.92 75.61,-31.82"/>
</g>
<!-- 2&#45;&gt;5 -->
<g id="edge4" class="edge">
<title>2&#45;&gt;5</title>
<path fill="none" stroke="black" d="M27.53,-74.5C35.43,-62.48 46.59,-45.49 54.48,-33.49"/>
</g>
<!-- 3 -->
<g id="node3" class="node">
<title>3</title>
<ellipse fill="none" stroke="black" cx="187" cy="-162" rx="18" ry="18"/>
<text text-anchor="middle" x="187" y="-157.32" font-family="Times,serif" font-size="14.00">3</text>
</g>
<!-- 6 -->
<g id="node6" class="node">
<title>6</title>
<ellipse fill="none" stroke="black" cx="164" cy="-90" rx="18" ry="18"/>
<text text-anchor="middle" x="164" y="-85.33" font-family="Times,serif" font-size="14.00">6</text>
</g>
<!-- 3&#45;&gt;6 -->
<g id="edge6" class="edge">
<title>3&#45;&gt;6</title>
<path fill="none" stroke="black" d="M181.55,-144.41C177.88,-133.25 173.07,-118.6 169.41,-107.47"/>
</g>
<!-- 8 -->
<g id="node8" class="node">
<title>8</title>
<ellipse fill="none" stroke="black" cx="187" cy="-18" rx="18" ry="18"/>
<text text-anchor="middle" x="187" y="-13.32" font-family="Times,serif" font-size="14.00">8</text>
</g>
<!-- 3&#45;&gt;8 -->
<g id="edge7" class="edge">
<title>3&#45;&gt;8</title>
<path fill="none" stroke="black" d="M188.62,-143.83C189.52,-133.47 190.55,-119.99 191,-108 191.6,-92.01 191.6,-87.99 191,-72 190.55,-60.01 189.52,-46.53 188.62,-36.17"/>
</g>
<!-- 6&#45;&gt;8 -->
<g id="edge1" class="edge">
<title>6&#45;&gt;8</title>
<path fill="none" stroke="black" d="M169.45,-72.41C173.12,-61.25 177.93,-46.6 181.59,-35.47"/>
</g>
<!-- 7 -->
<g id="node7" class="node">
<title>7</title>
<ellipse fill="none" stroke="black" cx="241" cy="-162" rx="18" ry="18"/>
<text text-anchor="middle" x="241" y="-157.32" font-family="Times,serif" font-size="14.00">7</text>
</g>
</g>
</svg>
