<?xml version="1.0" encoding="UTF-8" standalone="no"?>
<!DOCTYPE svg PUBLIC "-//W3C//DTD SVG 1.1//EN"
 "http://www.w3.org/Graphics/SVG/1.1/DTD/svg11.dtd">
<!-- Generated by graphviz version 9.0.0 (20230911.1827)
 -->
<!-- Pages: 1 -->
<svg width="202pt" height="260pt"
 viewBox="0.00 0.00 201.80 260.00" xmlns="http://www.w3.org/2000/svg" xmlns:xlink="http://www.w3.org/1999/xlink">
<g id="graph0" class="graph" transform="scale(1 1) rotate(0) translate(4 256)">
<polygon fill="white" stroke="none" points="-4,4 -4,-256 197.8,-256 197.8,4 -4,4"/>
<!-- 1 -->
<g id="node1" class="node">
<title>1</title>
<ellipse fill="none" stroke="black" cx="29.8" cy="-18" rx="18" ry="18"/>
<text text-anchor="middle" x="29.8" y="-13.32" font-family="Times,serif" font-size="14.00">1</text>
</g>
<!-- 2 -->
<g id="node2" class="node">
<title>2</title>
<ellipse fill="none" stroke="black" cx="29.8" cy="-162" rx="18" ry="18"/>
<text text-anchor="middle" x="29.8" y="-157.32" font-family="Times,serif" font-size="14.00">2</text>
</g>
<!-- 1&#45;&gt;2 -->
<g id="edge2" class="edge">
<title>1&#45;&gt;2</title>
<path fill="none" stroke="black" d="M20,-33.57C13.71,-43.82 6.13,-58.14 2.8,-72 -0.93,-87.56 -0.93,-92.44 2.8,-108 5.19,-117.96 9.78,-128.16 14.51,-136.91"/>
<polygon fill="black" stroke="black" points="19.39,-145.38 10.5,-138.96 17.5,-142.1 14.39,-136.71 14.39,-136.71 14.39,-136.71 17.5,-142.1 18.29,-134.47 19.39,-145.38"/>
</g>
<!-- 3 -->
<g id="node3" class="node">
<title>3</title>
<ellipse fill="none" stroke="black" cx="29.8" cy="-90" rx="18" ry="18"/>
<text text-anchor="middle" x="29.8" y="-85.33" font-family="Times,serif" font-size="14.00">3</text>
</g>
<!-- 1&#45;&gt;3 -->
<g id="edge3" class="edge">
<title>1&#45;&gt;3</title>
<path fill="none" stroke="black" d="M29.8,-36.3C29.8,-43.68 29.8,-52.48 29.8,-60.75"/>
<polygon fill="black" stroke="black" points="29.8,-70.68 25.3,-60.68 29.8,-66.9 29.8,-60.68 29.8,-60.68 29.8,-60.68 29.8,-66.9 34.3,-60.68 29.8,-70.68"/>
</g>
<!-- 4 -->
<g id="node4" class="node">
<title>4</title>
<ellipse fill="none" stroke="black" cx="29.8" cy="-234" rx="18" ry="18"/>
<text text-anchor="middle" x="29.8" y="-229.32" font-family="Times,serif" font-size="14.00">4</text>
</g>
<!-- 1&#45;&gt;4 -->
<g id="edge1" class="edge">
<title>1&#45;&gt;4</title>
<path fill="none" stroke="black" d="M39.6,-33.57C45.89,-43.82 53.47,-58.14 56.8,-72 68,-118.67 68,-133.33 56.8,-180 54.41,-189.96 49.82,-200.16 45.09,-208.91"/>
<polygon fill="black" stroke="black" points="40.21,-217.38 41.31,-206.47 42.1,-214.1 45.21,-208.71 45.21,-208.71 45.21,-208.71 42.1,-214.1 49.11,-210.96 40.21,-217.38"/>
</g>
<!-- 2&#45;&gt;4 -->
<g id="edge6" class="edge">
<title>2&#45;&gt;4</title>
<path fill="none" stroke="black" d="M24,-179.24C23.12,-187.1 22.85,-196.76 23.2,-205.71"/>
<polygon fill="black" stroke="black" points="23.92,-215.64 18.71,-205.99 23.65,-211.87 23.2,-205.66 23.2,-205.66 23.2,-205.66 23.65,-211.87 27.68,-205.34 23.92,-215.64"/>
</g>
<!-- 3&#45;&gt;2 -->
<g id="edge4" class="edge">
<title>3&#45;&gt;2</title>
<path fill="none" stroke="black" d="M29.8,-108.3C29.8,-115.68 29.8,-124.48 29.8,-132.75"/>
<polygon fill="black" stroke="black" points="29.8,-142.68 25.3,-132.68 29.8,-138.9 29.8,-132.68 29.8,-132.68 29.8,-132.68 29.8,-138.9 34.3,-132.68 29.8,-142.68"/>
</g>
<!-- 4&#45;&gt;2 -->
<g id="edge5" class="edge">
<title>4&#45;&gt;2</title>
<path fill="none" stroke="black" d="M35.59,-216.85C36.48,-209 36.75,-199.35 36.41,-190.4"/>
<polygon fill="black" stroke="black" points="35.69,-180.45 40.9,-190.1 35.96,-184.22 36.41,-190.42 36.41,-190.42 36.41,-190.42 35.96,-184.22 31.92,-190.75 35.69,-180.45"/>
</g>
<!-- 5 -->
<g id="node5" class="node">
<title>5</title>
<ellipse fill="none" stroke="black" cx="121.8" cy="-162" rx="18" ry="18"/>
<text text-anchor="middle" x="121.8" y="-157.32" font-family="Times,serif" font-size="14.00">5</text>
</g>
<!-- 6 -->
<g id="node6" class="node">
<title>6</title>
<ellipse fill="none" stroke="black" cx="121.8" cy="-18" rx="18" ry="18"/>
<text text-anchor="middle" x="121.8" y="-13.32" font-family="Times,serif" font-size="14.00">6</text>
</g>
<!-- 7 -->
<g id="node7" class="node">
<title>7</title>
<ellipse fill="none" stroke="black" cx="121.8" cy="-90" rx="18" ry="18"/>
<text text-anchor="middle" x="121.8" y="-85.33" font-family="Times,serif" font-size="14.00">7</text>
</g>
<!-- 6&#45;&gt;7 -->
<g id="edge7" class="edge">
<title>6&#45;&gt;7</title>
<path fill="none" stroke="black" d="M121.8,-36.3C121.8,-43.68 121.8,-52.48 121.8,-60.75"/>
<polygon fill="black" stroke="black" points="121.8,-70.68 117.3,-60.68 121.8,-66.9 121.8,-60.68 121.8,-60.68 121.8,-60.68 121.8,-66.9 126.3,-60.68 121.8,-70.68"/>
</g>
<!-- 7&#45;&gt;5 -->
<g id="edge8" class="edge">
<title>7&#45;&gt;5</title>
<path fill="none" stroke="black" d="M121.8,-108.3C121.8,-115.68 121.8,-124.48 121.8,-132.75"/>
<polygon fill="black" stroke="black" points="121.8,-142.68 117.3,-132.68 121.8,-138.9 121.8,-132.68 121.8,-132.68 121.8,-132.68 121.8,-138.9 126.3,-132.68 121.8,-142.68"/>
</g>
<!-- 8 -->
<g id="node8" class="node">
<title>8</title>
<ellipse fill="none" stroke="black" cx="175.8" cy="-18" rx="18" ry="18"/>
<text text-anchor="middle" x="175.8" y="-13.32" font-family="Times,serif" font-size="14.00">8</text>
</g>
</g>
</svg>
