<?xml version="1.0" encoding="UTF-8" standalone="no"?>
<!DOCTYPE svg PUBLIC "-//W3C//DTD SVG 1.1//EN"
 "http://www.w3.org/Graphics/SVG/1.1/DTD/svg11.dtd">
<!-- Generated by graphviz version 9.0.0 (20230911.1827)
 -->
<!-- Pages: 1 -->
<svg width="202pt" height="260pt"
 viewBox="0.00 0.00 201.80 260.00" xmlns="http://www.w3.org/2000/svg" xmlns:xlink="http://www.w3.org/1999/xlink">
<g id="graph0" class="graph" transform="scale(1 1) rotate(0) translate(4 256)">
<polygon fill="white" stroke="none" points="-4,4 -4,-256 197.8,-256 197.8,4 -4,4"/>
<!-- 1 -->
<g id="node1" class="node">
<title>1</title>
<ellipse fill="none" stroke="black" cx="29.8" cy="-234" rx="18" ry="18"/>
<text text-anchor="middle" x="29.8" y="-229.32" font-family="Times,serif" font-size="14.00">1</text>
</g>
<!-- 2 -->
<g id="node2" class="node">
<title>2</title>
<ellipse fill="none" stroke="black" cx="29.8" cy="-90" rx="18" ry="18"/>
<text text-anchor="middle" x="29.8" y="-85.33" font-family="Times,serif" font-size="14.00">2</text>
</g>
<!-- 1&#45;&gt;2 -->
<g id="edge2" class="edge">
<title>1&#45;&gt;2</title>
<path fill="none" stroke="black" d="M20,-218.43C13.71,-208.18 6.13,-193.86 2.8,-180 -0.93,-164.44 -0.93,-159.56 2.8,-144 5.19,-134.04 9.78,-123.84 14.51,-115.09"/>
<polygon fill="black" stroke="black" points="19.39,-106.62 18.29,-117.53 17.5,-109.9 14.39,-115.29 14.39,-115.29 14.39,-115.29 17.5,-109.9 10.5,-113.04 19.39,-106.62"/>
</g>
<!-- 3 -->
<g id="node3" class="node">
<title>3</title>
<ellipse fill="none" stroke="black" cx="29.8" cy="-162" rx="18" ry="18"/>
<text text-anchor="middle" x="29.8" y="-157.32" font-family="Times,serif" font-size="14.00">3</text>
</g>
<!-- 1&#45;&gt;3 -->
<g id="edge3" class="edge">
<title>1&#45;&gt;3</title>
<path fill="none" stroke="black" d="M29.8,-215.7C29.8,-208.32 29.8,-199.52 29.8,-191.25"/>
<polygon fill="black" stroke="black" points="29.8,-181.32 34.3,-191.32 29.8,-185.1 29.8,-191.32 29.8,-191.32 29.8,-191.32 29.8,-185.1 25.3,-191.32 29.8,-181.32"/>
</g>
<!-- 4 -->
<g id="node4" class="node">
<title>4</title>
<ellipse fill="none" stroke="black" cx="29.8" cy="-18" rx="18" ry="18"/>
<text text-anchor="middle" x="29.8" y="-13.32" font-family="Times,serif" font-size="14.00">4</text>
</g>
<!-- 1&#45;&gt;4 -->
<g id="edge1" class="edge">
<title>1&#45;&gt;4</title>
<path fill="none" stroke="black" d="M39.6,-218.43C45.89,-208.18 53.47,-193.86 56.8,-180 68,-133.33 68,-118.67 56.8,-72 54.41,-62.04 49.82,-51.84 45.09,-43.09"/>
<polygon fill="black" stroke="black" points="40.21,-34.62 49.11,-41.04 42.1,-37.9 45.21,-43.29 45.21,-43.29 45.21,-43.29 42.1,-37.9 41.31,-45.53 40.21,-34.62"/>
</g>
<!-- 2&#45;&gt;4 -->
<g id="edge6" class="edge">
<title>2&#45;&gt;4</title>
<path fill="none" stroke="black" d="M24,-72.76C23.12,-64.9 22.85,-55.24 23.2,-46.29"/>
<polygon fill="black" stroke="black" points="23.92,-36.36 27.68,-46.66 23.65,-40.13 23.2,-46.34 23.2,-46.34 23.2,-46.34 23.65,-40.13 18.71,-46.01 23.92,-36.36"/>
</g>
<!-- 3&#45;&gt;2 -->
<g id="edge4" class="edge">
<title>3&#45;&gt;2</title>
<path fill="none" stroke="black" d="M29.8,-143.7C29.8,-136.32 29.8,-127.52 29.8,-119.25"/>
<polygon fill="black" stroke="black" points="29.8,-109.32 34.3,-119.32 29.8,-113.1 29.8,-119.32 29.8,-119.32 29.8,-119.32 29.8,-113.1 25.3,-119.32 29.8,-109.32"/>
</g>
<!-- 4&#45;&gt;2 -->
<g id="edge5" class="edge">
<title>4&#45;&gt;2</title>
<path fill="none" stroke="black" d="M35.59,-35.15C36.48,-43 36.75,-52.65 36.41,-61.6"/>
<polygon fill="black" stroke="black" points="35.69,-71.55 31.92,-61.25 35.96,-67.78 36.41,-61.58 36.41,-61.58 36.41,-61.58 35.96,-67.78 40.9,-61.9 35.69,-71.55"/>
</g>
<!-- 5 -->
<g id="node5" class="node">
<title>5</title>
<ellipse fill="none" stroke="black" cx="121.8" cy="-90" rx="18" ry="18"/>
<text text-anchor="middle" x="121.8" y="-85.33" font-family="Times,serif" font-size="14.00">5</text>
</g>
<!-- 6 -->
<g id="node6" class="node">
<title>6</title>
<ellipse fill="none" stroke="black" cx="121.8" cy="-234" rx="18" ry="18"/>
<text text-anchor="middle" x="121.8" y="-229.32" font-family="Times,serif" font-size="14.00">6</text>
</g>
<!-- 7 -->
<g id="node7" class="node">
<title>7</title>
<ellipse fill="none" stroke="black" cx="121.8" cy="-162" rx="18" ry="18"/>
<text text-anchor="middle" x="121.8" y="-157.32" font-family="Times,serif" font-size="14.00">7</text>
</g>
<!-- 6&#45;&gt;7 -->
<g id="edge7" class="edge">
<title>6&#45;&gt;7</title>
<path fill="none" stroke="black" d="M121.8,-215.7C121.8,-208.32 121.8,-199.52 121.8,-191.25"/>
<polygon fill="black" stroke="black" points="121.8,-181.32 126.3,-191.32 121.8,-185.1 121.8,-191.32 121.8,-191.32 121.8,-191.32 121.8,-185.1 117.3,-191.32 121.8,-181.32"/>
</g>
<!-- 7&#45;&gt;5 -->
<g id="edge8" class="edge">
<title>7&#45;&gt;5</title>
<path fill="none" stroke="black" d="M121.8,-143.7C121.8,-136.32 121.8,-127.52 121.8,-119.25"/>
<polygon fill="black" stroke="black" points="121.8,-109.32 126.3,-119.32 121.8,-113.1 121.8,-119.32 121.8,-119.32 121.8,-119.32 121.8,-113.1 117.3,-119.32 121.8,-109.32"/>
</g>
<!-- 8 -->
<g id="node8" class="node">
<title>8</title>
<ellipse fill="none" stroke="black" cx="175.8" cy="-234" rx="18" ry="18"/>
<text text-anchor="middle" x="175.8" y="-229.32" font-family="Times,serif" font-size="14.00">8</text>
</g>
</g>
</svg>
