<?xml version="1.0" encoding="UTF-8" standalone="no"?>
<!DOCTYPE svg PUBLIC "-//W3C//DTD SVG 1.1//EN"
 "http://www.w3.org/Graphics/SVG/1.1/DTD/svg11.dtd">
<!-- Generated by graphviz version 9.0.0 (20230911.1827)
 -->
<!-- Pages: 1 -->
<svg width="188pt" height="233pt"
 viewBox="0.00 0.00 188.00 233.03" xmlns="http://www.w3.org/2000/svg" xmlns:xlink="http://www.w3.org/1999/xlink">
<g id="graph0" class="graph" transform="scale(1 1) rotate(0) translate(4 229.03)">
<polygon fill="white" stroke="none" points="-4,4 -4,-229.03 184,-229.03 184,4 -4,4"/>
<!-- 1 -->
<g id="node1" class="node">
<title>1</title>
<ellipse fill="none" stroke="black" cx="18" cy="-30.03" rx="18" ry="18"/>
<text text-anchor="middle" x="18" y="-25.35" font-family="Times,serif" font-size="14.00">1</text>
</g>
<!-- 2 -->
<g id="node2" class="node">
<title>2</title>
<ellipse fill="none" stroke="black" cx="90" cy="-84.03" rx="18" ry="18"/>
<text text-anchor="middle" x="90" y="-79.35" font-family="Times,serif" font-size="14.00">2</text>
</g>
<!-- 1&#45;&gt;2 -->
<g id="edge2" class="edge">
<title>1&#45;&gt;2</title>
<path fill="none" stroke="black" d="M32.83,-40.69C45.1,-50.16 62.94,-63.92 75.2,-73.38"/>
</g>
<!-- 4 -->
<g id="node4" class="node">
<title>4</title>
<ellipse fill="none" stroke="black" cx="90" cy="-30.03" rx="18" ry="18"/>
<text text-anchor="middle" x="90" y="-25.35" font-family="Times,serif" font-size="14.00">4</text>
</g>
<!-- 1&#45;&gt;4 -->
<g id="edge5" class="edge">
<title>1&#45;&gt;4</title>
<path fill="none" stroke="black" d="M36.3,-30.03C47.15,-30.03 61.08,-30.03 71.9,-30.03"/>
</g>
<!-- 5 -->
<g id="node5" class="node">
<title>5</title>
<ellipse fill="none" stroke="black" cx="162" cy="-34.03" rx="18" ry="18"/>
<text text-anchor="middle" x="162" y="-29.35" font-family="Times,serif" font-size="14.00">5</text>
</g>
<!-- 1&#45;&gt;5 -->
<g id="edge3" class="edge">
<title>1&#45;&gt;5</title>
<path fill="none" stroke="black" d="M33.57,-20.22C43.82,-13.94 58.14,-6.35 72,-3.03 87.56,0.71 92.56,1.16 108,-3.03 122.4,-6.93 136.9,-15.83 147.09,-23.1"/>
</g>
<!-- 2&#45;&gt;5 -->
<g id="edge4" class="edge">
<title>2&#45;&gt;5</title>
<path fill="none" stroke="black" d="M105.17,-73.91C117.31,-65.23 134.72,-52.8 146.86,-44.13"/>
</g>
<!-- 3 -->
<g id="node3" class="node">
<title>3</title>
<ellipse fill="none" stroke="black" cx="18" cy="-153.03" rx="18" ry="18"/>
<text text-anchor="middle" x="18" y="-148.35" font-family="Times,serif" font-size="14.00">3</text>
</g>
<!-- 6 -->
<g id="node6" class="node">
<title>6</title>
<ellipse fill="none" stroke="black" cx="90" cy="-176.03" rx="18" ry="18"/>
<text text-anchor="middle" x="90" y="-171.35" font-family="Times,serif" font-size="14.00">6</text>
</g>
<!-- 3&#45;&gt;6 -->
<g id="edge6" class="edge">
<title>3&#45;&gt;6</title>
<path fill="none" stroke="black" d="M35.59,-158.48C46.75,-162.14 61.4,-166.96 72.53,-170.61"/>
</g>
<!-- 8 -->
<g id="node7" class="node">
<title>8</title>
<ellipse fill="none" stroke="black" cx="162" cy="-153.03" rx="18" ry="18"/>
<text text-anchor="middle" x="162" y="-148.35" font-family="Times,serif" font-size="14.00">8</text>
</g>
<!-- 3&#45;&gt;8 -->
<g id="edge7" class="edge">
<title>3&#45;&gt;8</title>
<path fill="none" stroke="black" d="M36.17,-151.4C46.53,-150.5 60.01,-149.48 72,-149.03 87.99,-148.42 92.01,-148.42 108,-149.03 119.99,-149.48 133.47,-150.5 143.83,-151.4"/>
</g>
<!-- 6&#45;&gt;8 -->
<g id="edge1" class="edge">
<title>6&#45;&gt;8</title>
<path fill="none" stroke="black" d="M107.59,-170.58C118.75,-166.91 133.4,-162.1 144.53,-158.44"/>
</g>
<!-- 7 -->
<g id="node8" class="node">
<title>7</title>
<ellipse fill="none" stroke="black" cx="18" cy="-207.03" rx="18" ry="18"/>
<text text-anchor="middle" x="18" y="-202.35" font-family="Times,serif" font-size="14.00">7</text>
</g>
</g>
</svg>
