<?xml version="1.0" encoding="UTF-8" standalone="no"?>
<!DOCTYPE svg PUBLIC "-//W3C//DTD SVG 1.1//EN"
 "http://www.w3.org/Graphics/SVG/1.1/DTD/svg11.dtd">
<!-- Generated by graphviz version 9.0.0 (20230911.1827)
 -->
<!-- Pages: 1 -->
<svg width="494pt" height="182pt"
 viewBox="0.00 0.00 494.00 182.25" xmlns="http://www.w3.org/2000/svg" xmlns:xlink="http://www.w3.org/1999/xlink">
<g id="graph0" class="graph" transform="scale(1 1) rotate(0) translate(4 178.25)">
<polygon fill="white" stroke="none" points="-4,4 -4,-178.25 490,-178.25 490,4 -4,4"/>
<!-- 1 -->
<g id="node1" class="node">
<title>1</title>
<ellipse fill="none" stroke="black" cx="27" cy="-23" rx="18" ry="18"/>
<text text-anchor="middle" x="27" y="-18.32" font-family="Times,serif" font-size="14.00">1</text>
</g>
<!-- 4 -->
<g id="node4" class="node">
<title>4</title>
<ellipse fill="none" stroke="black" cx="117" cy="-72" rx="18" ry="18"/>
<text text-anchor="middle" x="117" y="-67.33" font-family="Times,serif" font-size="14.00">4</text>
</g>
<!-- 1&#45;&gt;4 -->
<g id="edge1" class="edge">
<title>1&#45;&gt;4</title>
<path fill="none" stroke="black" d="M43.33,-31.54C56.58,-38.91 75.97,-49.71 91.39,-58.3"/>
<polygon fill="black" stroke="black" points="99.78,-62.97 88.86,-62.04 96.48,-61.13 91.05,-58.11 91.05,-58.11 91.05,-58.11 96.48,-61.13 93.24,-54.17 99.78,-62.97"/>
<text text-anchor="middle" x="76.5" y="-54.95" font-family="Times,serif" font-size="14.00">7</text>
</g>
<!-- 5 -->
<g id="node5" class="node">
<title>5</title>
<ellipse fill="none" stroke="black" cx="198" cy="-18" rx="18" ry="18"/>
<text text-anchor="middle" x="198" y="-13.32" font-family="Times,serif" font-size="14.00">5</text>
</g>
<!-- 1&#45;&gt;5 -->
<g id="edge2" class="edge">
<title>1&#45;&gt;5</title>
<path fill="none" stroke="black" d="M45.45,-22.48C74.7,-21.62 133.85,-19.87 168.98,-18.83"/>
<polygon fill="black" stroke="black" points="178.68,-18.54 168.82,-23.34 174.9,-18.65 168.68,-18.84 168.68,-18.84 168.68,-18.84 174.9,-18.65 168.55,-14.34 178.68,-18.54"/>
<text text-anchor="middle" x="117" y="-23.95" font-family="Times,serif" font-size="14.00">2</text>
</g>
<!-- 2 -->
<g id="node2" class="node">
<title>2</title>
<ellipse fill="none" stroke="black" cx="468" cy="-111" rx="18" ry="18"/>
<text text-anchor="middle" x="468" y="-106.33" font-family="Times,serif" font-size="14.00">2</text>
</g>
<!-- 3 -->
<g id="node3" class="node">
<title>3</title>
<ellipse fill="none" stroke="black" cx="252" cy="-113" rx="18" ry="18"/>
<text text-anchor="middle" x="252" y="-108.33" font-family="Times,serif" font-size="14.00">3</text>
</g>
<!-- 3&#45;&gt;2 -->
<g id="edge3" class="edge">
<title>3&#45;&gt;2</title>
<path fill="none" stroke="black" d="M270.15,-112.84C306.93,-112.5 393.71,-111.68 438.76,-111.26"/>
<polygon fill="black" stroke="black" points="448.55,-111.17 438.59,-115.77 444.77,-111.21 438.55,-111.27 438.55,-111.27 438.55,-111.27 444.77,-111.21 438.51,-106.77 448.55,-111.17"/>
<text text-anchor="middle" x="346.5" y="-115.95" font-family="Times,serif" font-size="14.00">5</text>
</g>
<!-- 4&#45;&gt;2 -->
<g id="edge6" class="edge">
<title>4&#45;&gt;2</title>
<path fill="none" stroke="black" d="M124.61,-88.79C135.6,-113.56 160.13,-157 197,-157 197,-157 197,-157 388,-157 410.29,-157 431.9,-143.16 446.86,-130.66"/>
<polygon fill="black" stroke="black" points="453.95,-124.38 449.45,-134.38 451.12,-126.89 446.47,-131.01 446.47,-131.01 446.47,-131.01 451.12,-126.89 443.48,-127.64 453.95,-124.38"/>
<text text-anchor="middle" x="306" y="-160.95" font-family="Times,serif" font-size="14.00">2</text>
</g>
<!-- 4&#45;&gt;3 -->
<g id="edge4" class="edge">
<title>4&#45;&gt;3</title>
<path fill="none" stroke="black" d="M133.89,-78.79C139.83,-81.22 146.67,-83.87 153,-86 176.49,-93.91 203.7,-101.26 223.48,-106.29"/>
<polygon fill="black" stroke="black" points="233,-108.68 222.21,-110.61 229.33,-107.76 223.3,-106.25 223.3,-106.25 223.3,-106.25 229.33,-107.76 224.39,-101.88 233,-108.68"/>
<text text-anchor="middle" x="157.5" y="-91.95" font-family="Times,serif" font-size="14.00">2</text>
</g>
<!-- 4&#45;&gt;5 -->
<g id="edge5" class="edge">
<title>4&#45;&gt;5</title>
<path fill="none" stroke="black" d="M130.32,-59.61C136.76,-53.51 144.95,-46.29 153,-40.75 158.63,-36.88 165,-33.22 171.11,-30.01"/>
<polygon fill="black" stroke="black" points="179.88,-25.63 172.95,-34.12 176.5,-27.32 170.94,-30.1 170.94,-30.1 170.94,-30.1 176.5,-27.32 168.93,-26.07 179.88,-25.63"/>
<text text-anchor="middle" x="157.5" y="-43.95" font-family="Times,serif" font-size="14.00">3</text>
</g>
<!-- 6 -->
<g id="node6" class="node">
<title>6</title>
<ellipse fill="none" stroke="black" cx="306" cy="-65" rx="18" ry="18"/>
<text text-anchor="middle" x="306" y="-60.33" font-family="Times,serif" font-size="14.00">6</text>
</g>
<!-- 5&#45;&gt;6 -->
<g id="edge7" class="edge">
<title>5&#45;&gt;6</title>
<path fill="none" stroke="black" d="M215.9,-21.91C230.63,-25.66 252.35,-32.05 270,-40.75 274.06,-42.75 278.18,-45.18 282.1,-47.73"/>
<polygon fill="black" stroke="black" points="290.28,-53.39 279.5,-51.4 287.18,-51.24 282.06,-47.7 282.06,-47.7 282.06,-47.7 287.18,-51.24 284.63,-44 290.28,-53.39"/>
<text text-anchor="middle" x="252" y="-43.95" font-family="Times,serif" font-size="14.00">2</text>
</g>
<!-- 6&#45;&gt;4 -->
<g id="edge8" class="edge">
<title>6&#45;&gt;4</title>
<path fill="none" stroke="black" d="M287.51,-65.65C255.13,-66.87 185.58,-69.47 146.38,-70.94"/>
<polygon fill="black" stroke="black" points="136.47,-71.31 146.3,-66.44 140.25,-71.17 146.47,-70.93 146.47,-70.93 146.47,-70.93 140.25,-71.17 146.64,-75.43 136.47,-71.31"/>
<text text-anchor="middle" x="198" y="-72.95" font-family="Times,serif" font-size="14.00">2</text>
</g>
<!-- 7 -->
<g id="node7" class="node">
<title>7</title>
<ellipse fill="none" stroke="black" cx="387" cy="-65" rx="18" ry="18"/>
<text text-anchor="middle" x="387" y="-60.33" font-family="Times,serif" font-size="14.00">7</text>
</g>
<!-- 6&#45;&gt;7 -->
<g id="edge9" class="edge">
<title>6&#45;&gt;7</title>
<path fill="none" stroke="black" d="M324.14,-65C333.91,-65 346.4,-65 357.59,-65"/>
<polygon fill="black" stroke="black" points="367.4,-65 357.4,-69.5 363.62,-65 357.4,-65 357.4,-65 357.4,-65 363.62,-65 357.4,-60.5 367.4,-65"/>
<text text-anchor="middle" x="346.5" y="-68.95" font-family="Times,serif" font-size="14.00">1</text>
</g>
<!-- 7&#45;&gt;2 -->
<g id="edge10" class="edge">
<title>7&#45;&gt;2</title>
<path fill="none" stroke="black" d="M404.98,-68.95C413.45,-71.35 423.64,-74.89 432,-79.75 437.15,-82.74 442.22,-86.57 446.82,-90.52"/>
<polygon fill="black" stroke="black" points="454.12,-97.24 443.72,-93.78 451.34,-94.68 446.76,-90.47 446.76,-90.47 446.76,-90.47 451.34,-94.68 449.81,-87.16 454.12,-97.24"/>
<text text-anchor="middle" x="427.5" y="-82.95" font-family="Times,serif" font-size="14.00">7</text>
</g>
<!-- 8 -->
<g id="node8" class="node">
<title>8</title>
<ellipse fill="none" stroke="black" cx="27" cy="-77" rx="18" ry="18"/>
<text text-anchor="middle" x="27" y="-72.33" font-family="Times,serif" font-size="14.00">8</text>
</g>
<!-- &#45; -->
<g id="node9" class="node">
<title>&#45;</title>
<ellipse fill="none" stroke="black" cx="27" cy="-131" rx="27" ry="18"/>
<text text-anchor="middle" x="27" y="-126.33" font-family="Times,serif" font-size="14.00">&#45;</text>
</g>
</g>
</svg>
