<?xml version="1.0" encoding="UTF-8" standalone="no"?>
<!DOCTYPE svg PUBLIC "-//W3C//DTD SVG 1.1//EN"
 "http://www.w3.org/Graphics/SVG/1.1/DTD/svg11.dtd">
<!-- Generated by graphviz version 9.0.0 (20230911.1827)
 -->
<!-- Title: BinaryTree Pages: 1 -->
<svg width="742pt" height="332pt"
 viewBox="0.00 0.00 742.00 332.00" xmlns="http://www.w3.org/2000/svg" xmlns:xlink="http://www.w3.org/1999/xlink">
<g id="graph0" class="graph" transform="scale(1 1) rotate(0) translate(4 328)">
<title>BinaryTree</title>
<polygon fill="white" stroke="none" points="-4,4 -4,-328 738,-328 738,4 -4,4"/>
<!-- 1 -->
<g id="node1" class="node">
<title>1</title>
<text text-anchor="middle" x="414" y="-301.32" font-family="Times,serif" font-size="14.00">fib(n)</text>
</g>
<!-- 2 -->
<g id="node2" class="node">
<title>2</title>
<text text-anchor="middle" x="273" y="-229.32" font-family="Times,serif" font-size="14.00">fib(n &#45; 1)</text>
</g>
<!-- 1&#45;&#45;2 -->
<g id="edge1" class="edge">
<title>1&#45;&#45;2</title>
<path fill="none" stroke="black" d="M387.15,-291.67C364.38,-280.36 331.59,-264.09 306.99,-251.87"/>
</g>
<!-- 3 -->
<g id="node3" class="node">
<title>3</title>
<text text-anchor="middle" x="461" y="-229.32" font-family="Times,serif" font-size="14.00">fib(n &#45; 2)</text>
</g>
<!-- 1&#45;&#45;3 -->
<g id="edge2" class="edge">
<title>1&#45;&#45;3</title>
<path fill="none" stroke="black" d="M425.38,-288.05C432.77,-277.05 442.36,-262.76 449.73,-251.79"/>
</g>
<!-- 4 -->
<g id="node4" class="node">
<title>4</title>
<text text-anchor="middle" x="132" y="-157.32" font-family="Times,serif" font-size="14.00">fib(n &#45; 2)</text>
</g>
<!-- 2&#45;&#45;4 -->
<g id="edge3" class="edge">
<title>2&#45;&#45;4</title>
<path fill="none" stroke="black" d="M238.87,-216.05C216.7,-205.05 187.92,-190.76 165.82,-179.79"/>
</g>
<!-- 5 -->
<g id="node5" class="node">
<title>5</title>
<text text-anchor="middle" x="273" y="-157.32" font-family="Times,serif" font-size="14.00">fib(n &#45; 3)</text>
</g>
<!-- 2&#45;&#45;5 -->
<g id="edge4" class="edge">
<title>2&#45;&#45;5</title>
<path fill="none" stroke="black" d="M273,-216.05C273,-205.05 273,-190.76 273,-179.79"/>
</g>
<!-- 6 -->
<g id="node6" class="node">
<title>6</title>
<text text-anchor="middle" x="461" y="-157.32" font-family="Times,serif" font-size="14.00">fib(n &#45; 3)</text>
</g>
<!-- 3&#45;&#45;6 -->
<g id="edge5" class="edge">
<title>3&#45;&#45;6</title>
<path fill="none" stroke="black" d="M461,-216.05C461,-205.05 461,-190.76 461,-179.79"/>
</g>
<!-- 7 -->
<g id="node7" class="node">
<title>7</title>
<text text-anchor="middle" x="602" y="-157.32" font-family="Times,serif" font-size="14.00">fib(n &#45; 4)</text>
</g>
<!-- 3&#45;&#45;7 -->
<g id="edge6" class="edge">
<title>3&#45;&#45;7</title>
<path fill="none" stroke="black" d="M495.13,-216.05C517.3,-205.05 546.08,-190.76 568.18,-179.79"/>
</g>
<!-- 8 -->
<g id="node8" class="node">
<title>8</title>
<text text-anchor="middle" x="38" y="-85.33" font-family="Times,serif" font-size="14.00">fib(n &#45; 3)</text>
</g>
<!-- 4&#45;&#45;8 -->
<g id="edge7" class="edge">
<title>4&#45;&#45;8</title>
<path fill="none" stroke="black" d="M109.25,-144.05C94.47,-133.05 75.28,-118.76 60.55,-107.79"/>
</g>
<!-- 9 -->
<g id="node9" class="node">
<title>9</title>
<text text-anchor="middle" x="132" y="-85.33" font-family="Times,serif" font-size="14.00">fib(n &#45; 4)</text>
</g>
<!-- 4&#45;&#45;9 -->
<g id="edge8" class="edge">
<title>4&#45;&#45;9</title>
<path fill="none" stroke="black" d="M132,-144.05C132,-133.05 132,-118.76 132,-107.79"/>
</g>
<!-- 10 -->
<g id="node10" class="node">
<title>10</title>
<text text-anchor="middle" x="226" y="-85.33" font-family="Times,serif" font-size="14.00">fib(n &#45; 4)</text>
</g>
<!-- 5&#45;&#45;10 -->
<g id="edge9" class="edge">
<title>5&#45;&#45;10</title>
<path fill="none" stroke="black" d="M261.62,-144.05C254.23,-133.05 244.64,-118.76 237.27,-107.79"/>
</g>
<!-- 11 -->
<g id="node11" class="node">
<title>11</title>
<text text-anchor="middle" x="320" y="-85.33" font-family="Times,serif" font-size="14.00">fib(n &#45; 5)</text>
</g>
<!-- 5&#45;&#45;11 -->
<g id="edge10" class="edge">
<title>5&#45;&#45;11</title>
<path fill="none" stroke="black" d="M284.38,-144.05C291.77,-133.05 301.36,-118.76 308.73,-107.79"/>
</g>
<!-- 12 -->
<g id="node12" class="node">
<title>12</title>
<text text-anchor="middle" x="414" y="-85.33" font-family="Times,serif" font-size="14.00">fib(n &#45; 4)</text>
</g>
<!-- 6&#45;&#45;12 -->
<g id="edge11" class="edge">
<title>6&#45;&#45;12</title>
<path fill="none" stroke="black" d="M449.62,-144.05C442.23,-133.05 432.64,-118.76 425.27,-107.79"/>
</g>
<!-- 13 -->
<g id="node13" class="node">
<title>13</title>
<text text-anchor="middle" x="508" y="-85.33" font-family="Times,serif" font-size="14.00">fib(n &#45; 5)</text>
</g>
<!-- 6&#45;&#45;13 -->
<g id="edge12" class="edge">
<title>6&#45;&#45;13</title>
<path fill="none" stroke="black" d="M472.38,-144.05C479.77,-133.05 489.36,-118.76 496.73,-107.79"/>
</g>
<!-- 14 -->
<g id="node14" class="node">
<title>14</title>
<text text-anchor="middle" x="602" y="-85.33" font-family="Times,serif" font-size="14.00">fib(n &#45; 5)</text>
</g>
<!-- 7&#45;&#45;14 -->
<g id="edge13" class="edge">
<title>7&#45;&#45;14</title>
<path fill="none" stroke="black" d="M602,-144.05C602,-133.05 602,-118.76 602,-107.79"/>
</g>
<!-- 15 -->
<g id="node15" class="node">
<title>15</title>
<text text-anchor="middle" x="696" y="-85.33" font-family="Times,serif" font-size="14.00">fib(n &#45; 6)</text>
</g>
<!-- 7&#45;&#45;15 -->
<g id="edge14" class="edge">
<title>7&#45;&#45;15</title>
<path fill="none" stroke="black" d="M624.75,-144.05C639.53,-133.05 658.72,-118.76 673.45,-107.79"/>
</g>
<!-- L1 -->
<g id="node16" class="node">
<title>L1</title>
</g>
<!-- 8&#45;&#45;L1 -->
<g id="edge15" class="edge">
<title>8&#45;&#45;L1</title>
<path fill="none" stroke="black" stroke-dasharray="1,5" d="M38,-72.05C38,-61.05 38,-46.76 38,-35.79"/>
</g>
<!-- L2 -->
<g id="node17" class="node">
<title>L2</title>
</g>
<!-- 9&#45;&#45;L2 -->
<g id="edge16" class="edge">
<title>9&#45;&#45;L2</title>
<path fill="none" stroke="black" stroke-dasharray="1,5" d="M132,-72.05C132,-61.05 132,-46.76 132,-35.79"/>
</g>
<!-- L3 -->
<g id="node18" class="node">
<title>L3</title>
</g>
<!-- 10&#45;&#45;L3 -->
<g id="edge17" class="edge">
<title>10&#45;&#45;L3</title>
<path fill="none" stroke="black" stroke-dasharray="1,5" d="M226,-72.05C226,-61.05 226,-46.76 226,-35.79"/>
</g>
<!-- L4 -->
<g id="node19" class="node">
<title>L4</title>
</g>
<!-- 11&#45;&#45;L4 -->
<g id="edge18" class="edge">
<title>11&#45;&#45;L4</title>
<path fill="none" stroke="black" stroke-dasharray="1,5" d="M320,-72.05C320,-61.05 320,-46.76 320,-35.79"/>
</g>
<!-- L5 -->
<g id="node20" class="node">
<title>L5</title>
</g>
<!-- 12&#45;&#45;L5 -->
<g id="edge19" class="edge">
<title>12&#45;&#45;L5</title>
<path fill="none" stroke="black" stroke-dasharray="1,5" d="M414,-72.05C414,-61.05 414,-46.76 414,-35.79"/>
</g>
<!-- L6 -->
<g id="node21" class="node">
<title>L6</title>
</g>
<!-- 13&#45;&#45;L6 -->
<g id="edge20" class="edge">
<title>13&#45;&#45;L6</title>
<path fill="none" stroke="black" stroke-dasharray="1,5" d="M508,-72.05C508,-61.05 508,-46.76 508,-35.79"/>
</g>
<!-- L7 -->
<g id="node22" class="node">
<title>L7</title>
</g>
<!-- 14&#45;&#45;L7 -->
<g id="edge21" class="edge">
<title>14&#45;&#45;L7</title>
<path fill="none" stroke="black" stroke-dasharray="1,5" d="M602,-72.05C602,-61.05 602,-46.76 602,-35.79"/>
</g>
<!-- L8 -->
<g id="node23" class="node">
<title>L8</title>
</g>
<!-- 15&#45;&#45;L8 -->
<g id="edge22" class="edge">
<title>15&#45;&#45;L8</title>
<path fill="none" stroke="black" stroke-dasharray="1,5" d="M696,-72.05C696,-61.05 696,-46.76 696,-35.79"/>
</g>
</g>
</svg>
